<mxfile host="app.diagrams.net" modified="2022-01-26T06:26:52.884Z" agent="5.0 (Windows)" etag="fLCSOrMQgjMOQeNZwdSq" version="16.4.7" type="github" pages="2">
  <diagram name="Page-1" id="5f0bae14-7c28-e335-631c-24af17079c00">
    <mxGraphModel dx="1151" dy="686" grid="1" gridSize="10" guides="1" tooltips="1" connect="1" arrows="1" fold="1" page="1" pageScale="1" pageWidth="1100" pageHeight="850" background="none" math="0" shadow="0">
      <root>
        <mxCell id="0" />
        <mxCell id="1" parent="0" />
        <mxCell id="39150e848f15840c-1" value="Block" style="verticalAlign=top;align=left;spacingTop=8;spacingLeft=2;spacingRight=12;shape=cube;size=10;direction=south;fontStyle=4;html=1;rounded=0;shadow=0;comic=0;labelBackgroundColor=none;strokeWidth=1;fontFamily=Verdana;fontSize=12" parent="1" vertex="1">
          <mxGeometry x="120" y="70" width="330" height="220" as="geometry" />
        </mxCell>
        <mxCell id="eHy4RVqohAVwL3KHxJ7I-3" style="edgeStyle=orthogonalEdgeStyle;rounded=0;orthogonalLoop=1;jettySize=auto;html=1;" edge="1" parent="1" source="39150e848f15840c-2" target="39150e848f15840c-1">
          <mxGeometry relative="1" as="geometry" />
        </mxCell>
        <mxCell id="39150e848f15840c-2" value="Block" style="verticalAlign=top;align=left;spacingTop=8;spacingLeft=2;spacingRight=12;shape=cube;size=10;direction=south;fontStyle=4;html=1;rounded=0;shadow=0;comic=0;labelBackgroundColor=none;strokeWidth=1;fontFamily=Verdana;fontSize=12" parent="1" vertex="1">
          <mxGeometry x="530" y="70" width="330" height="220" as="geometry" />
        </mxCell>
        <mxCell id="39150e848f15840c-3" value="Block" style="verticalAlign=top;align=left;spacingTop=8;spacingLeft=2;spacingRight=12;shape=cube;size=10;direction=south;fontStyle=4;html=1;rounded=0;shadow=0;comic=0;labelBackgroundColor=none;strokeWidth=1;fontFamily=Verdana;fontSize=12" parent="1" vertex="1">
          <mxGeometry x="370" y="410" width="260" height="150" as="geometry" />
        </mxCell>
        <mxCell id="39150e848f15840c-4" value="&lt;div&gt;«interface»&lt;b&gt;&lt;br&gt;&lt;/b&gt;&lt;/div&gt;&lt;div&gt;&lt;b&gt;Render&lt;/b&gt;&lt;/div&gt;" style="html=1;rounded=0;shadow=0;comic=0;labelBackgroundColor=none;strokeWidth=1;fontFamily=Verdana;fontSize=12;align=center;" parent="1" vertex="1">
          <mxGeometry x="160" y="140" width="110" height="50" as="geometry" />
        </mxCell>
        <mxCell id="39150e848f15840c-5" value="GLRender" style="shape=component;align=left;spacingLeft=36;rounded=0;shadow=0;comic=0;labelBackgroundColor=none;strokeWidth=1;fontFamily=Verdana;fontSize=12;html=1;" parent="1" vertex="1">
          <mxGeometry x="310" y="135" width="120" height="60" as="geometry" />
        </mxCell>
        <mxCell id="39150e848f15840c-6" value="" style="ellipse;whiteSpace=wrap;html=1;rounded=0;shadow=0;comic=0;labelBackgroundColor=none;strokeWidth=1;fontFamily=Verdana;fontSize=12;align=center;" parent="1" vertex="1">
          <mxGeometry x="360" y="230" width="20" height="20" as="geometry" />
        </mxCell>
        <mxCell id="39150e848f15840c-7" value="ShaderProgram" style="shape=component;align=left;spacingLeft=36;rounded=0;shadow=0;comic=0;labelBackgroundColor=none;strokeWidth=1;fontFamily=Verdana;fontSize=12;html=1;" parent="1" vertex="1">
          <mxGeometry x="540" y="135" width="140" height="60" as="geometry" />
        </mxCell>
        <mxCell id="39150e848f15840c-8" value="&lt;div&gt;«interface»&lt;/div&gt;&lt;div&gt;Shader&lt;br&gt;&lt;/div&gt;" style="html=1;rounded=0;shadow=0;comic=0;labelBackgroundColor=none;strokeWidth=1;fontFamily=Verdana;fontSize=12;align=center;" parent="1" vertex="1">
          <mxGeometry x="720" y="140" width="110" height="50" as="geometry" />
        </mxCell>
        <mxCell id="39150e848f15840c-9" value="" style="ellipse;whiteSpace=wrap;html=1;rounded=0;shadow=0;comic=0;labelBackgroundColor=none;strokeWidth=1;fontFamily=Verdana;fontSize=12;align=center;" parent="1" vertex="1">
          <mxGeometry x="620" y="230" width="20" height="20" as="geometry" />
        </mxCell>
        <mxCell id="39150e848f15840c-10" value="Effects" style="shape=component;align=left;spacingLeft=36;rounded=0;shadow=0;comic=0;labelBackgroundColor=none;strokeWidth=1;fontFamily=Verdana;fontSize=12;html=1;" parent="1" vertex="1">
          <mxGeometry x="440" y="460" width="120" height="60" as="geometry" />
        </mxCell>
        <mxCell id="39150e848f15840c-11" style="edgeStyle=none;rounded=0;html=1;dashed=1;labelBackgroundColor=none;startArrow=none;startFill=0;startSize=8;endArrow=open;endFill=0;endSize=16;fontFamily=Verdana;fontSize=12;" parent="1" source="39150e848f15840c-10" target="39150e848f15840c-6" edge="1">
          <mxGeometry relative="1" as="geometry" />
        </mxCell>
        <mxCell id="39150e848f15840c-12" style="edgeStyle=none;rounded=0;html=1;dashed=1;labelBackgroundColor=none;startArrow=none;startFill=0;startSize=8;endArrow=open;endFill=0;endSize=16;fontFamily=Verdana;fontSize=12;exitX=0.5;exitY=0;exitDx=0;exitDy=0;" parent="1" source="39150e848f15840c-10" target="39150e848f15840c-9" edge="1">
          <mxGeometry relative="1" as="geometry" />
        </mxCell>
        <mxCell id="39150e848f15840c-13" style="edgeStyle=elbowEdgeStyle;rounded=0;html=1;labelBackgroundColor=none;startArrow=none;startFill=0;startSize=8;endArrow=none;endFill=0;endSize=16;fontFamily=Verdana;fontSize=12;" parent="1" source="39150e848f15840c-9" target="39150e848f15840c-7" edge="1">
          <mxGeometry relative="1" as="geometry" />
        </mxCell>
        <mxCell id="39150e848f15840c-14" style="edgeStyle=elbowEdgeStyle;rounded=0;html=1;labelBackgroundColor=none;startArrow=none;startFill=0;startSize=8;endArrow=none;endFill=0;endSize=16;fontFamily=Verdana;fontSize=12;" parent="1" source="39150e848f15840c-6" target="39150e848f15840c-5" edge="1">
          <mxGeometry relative="1" as="geometry" />
        </mxCell>
        <mxCell id="39150e848f15840c-15" style="edgeStyle=orthogonalEdgeStyle;rounded=0;html=1;labelBackgroundColor=none;startArrow=none;startFill=0;startSize=8;endArrow=open;endFill=0;endSize=16;fontFamily=Verdana;fontSize=12;dashed=1;" parent="1" source="39150e848f15840c-5" target="39150e848f15840c-4" edge="1">
          <mxGeometry relative="1" as="geometry">
            <Array as="points">
              <mxPoint x="350" y="220" />
              <mxPoint x="215" y="220" />
            </Array>
          </mxGeometry>
        </mxCell>
        <mxCell id="39150e848f15840c-16" style="edgeStyle=orthogonalEdgeStyle;rounded=0;html=1;dashed=1;labelBackgroundColor=none;startArrow=none;startFill=0;startSize=8;endArrow=open;endFill=0;endSize=16;fontFamily=Verdana;fontSize=12;" parent="1" source="39150e848f15840c-7" target="39150e848f15840c-8" edge="1">
          <mxGeometry relative="1" as="geometry" />
        </mxCell>
        <mxCell id="39150e848f15840c-17" style="edgeStyle=orthogonalEdgeStyle;rounded=0;html=1;labelBackgroundColor=none;startArrow=none;startFill=0;startSize=8;endArrow=none;endFill=0;endSize=16;fontFamily=Verdana;fontSize=12;" parent="1" source="39150e848f15840c-3" target="39150e848f15840c-2" edge="1">
          <mxGeometry relative="1" as="geometry">
            <Array as="points">
              <mxPoint x="695" y="485" />
            </Array>
          </mxGeometry>
        </mxCell>
        <mxCell id="39150e848f15840c-18" style="edgeStyle=orthogonalEdgeStyle;rounded=0;html=1;labelBackgroundColor=none;startArrow=none;startFill=0;startSize=8;endArrow=none;endFill=0;endSize=16;fontFamily=Verdana;fontSize=12;" parent="1" source="39150e848f15840c-3" target="39150e848f15840c-1" edge="1">
          <mxGeometry relative="1" as="geometry">
            <Array as="points">
              <mxPoint x="285" y="485" />
            </Array>
          </mxGeometry>
        </mxCell>
      </root>
    </mxGraphModel>
  </diagram>
  <diagram id="jOgYZQ3Nyue2cZYW5UeC" name="Page-2">
    <mxGraphModel dx="1151" dy="686" grid="1" gridSize="10" guides="1" tooltips="1" connect="1" arrows="1" fold="1" page="1" pageScale="1" pageWidth="827" pageHeight="1169" math="0" shadow="0">
      <root>
        <mxCell id="42rtoRn7jrRHM3XpEsMO-0" />
        <mxCell id="42rtoRn7jrRHM3XpEsMO-1" parent="42rtoRn7jrRHM3XpEsMO-0" />
        <mxCell id="42rtoRn7jrRHM3XpEsMO-24" style="edgeStyle=orthogonalEdgeStyle;rounded=0;orthogonalLoop=1;jettySize=auto;html=1;entryX=0.5;entryY=1;entryDx=0;entryDy=0;" edge="1" parent="42rtoRn7jrRHM3XpEsMO-1" source="42rtoRn7jrRHM3XpEsMO-16" target="42rtoRn7jrRHM3XpEsMO-12">
          <mxGeometry relative="1" as="geometry" />
        </mxCell>
        <mxCell id="42rtoRn7jrRHM3XpEsMO-16" value="" style="rounded=0;whiteSpace=wrap;html=1;fillColor=#e1d5e7;strokeColor=#9673a6;" vertex="1" parent="42rtoRn7jrRHM3XpEsMO-1">
          <mxGeometry x="200" y="440" width="440" height="120" as="geometry" />
        </mxCell>
        <mxCell id="42rtoRn7jrRHM3XpEsMO-17" value="ShaderProgram" style="rounded=0;whiteSpace=wrap;html=1;" vertex="1" parent="42rtoRn7jrRHM3XpEsMO-1">
          <mxGeometry x="200" y="440" width="120" height="20" as="geometry" />
        </mxCell>
        <mxCell id="42rtoRn7jrRHM3XpEsMO-18" value="WaterShader" style="rounded=0;whiteSpace=wrap;html=1;" vertex="1" parent="42rtoRn7jrRHM3XpEsMO-1">
          <mxGeometry x="200" y="480" width="120" height="60" as="geometry" />
        </mxCell>
        <mxCell id="42rtoRn7jrRHM3XpEsMO-20" value="XXShader" style="rounded=0;whiteSpace=wrap;html=1;" vertex="1" parent="42rtoRn7jrRHM3XpEsMO-1">
          <mxGeometry x="360" y="480" width="120" height="60" as="geometry" />
        </mxCell>
        <mxCell id="42rtoRn7jrRHM3XpEsMO-21" value="ParticleShader" style="rounded=0;whiteSpace=wrap;html=1;" vertex="1" parent="42rtoRn7jrRHM3XpEsMO-1">
          <mxGeometry x="520" y="480" width="120" height="60" as="geometry" />
        </mxCell>
        <mxCell id="42rtoRn7jrRHM3XpEsMO-23" style="edgeStyle=orthogonalEdgeStyle;rounded=0;orthogonalLoop=1;jettySize=auto;html=1;entryX=0.5;entryY=1;entryDx=0;entryDy=0;" edge="1" parent="42rtoRn7jrRHM3XpEsMO-1" source="42rtoRn7jrRHM3XpEsMO-22" target="42rtoRn7jrRHM3XpEsMO-16">
          <mxGeometry relative="1" as="geometry" />
        </mxCell>
        <mxCell id="42rtoRn7jrRHM3XpEsMO-22" value="Opengl3.0" style="rounded=0;whiteSpace=wrap;html=1;fillColor=#f5f5f5;gradientColor=#b3b3b3;strokeColor=#666666;" vertex="1" parent="42rtoRn7jrRHM3XpEsMO-1">
          <mxGeometry x="200" y="590" width="440" height="60" as="geometry" />
        </mxCell>
        <mxCell id="42rtoRn7jrRHM3XpEsMO-34" style="edgeStyle=orthogonalEdgeStyle;rounded=0;orthogonalLoop=1;jettySize=auto;html=1;exitX=0.5;exitY=1;exitDx=0;exitDy=0;entryX=0.5;entryY=0;entryDx=0;entryDy=0;" edge="1" parent="42rtoRn7jrRHM3XpEsMO-1" source="42rtoRn7jrRHM3XpEsMO-32" target="42rtoRn7jrRHM3XpEsMO-3">
          <mxGeometry relative="1" as="geometry" />
        </mxCell>
        <mxCell id="42rtoRn7jrRHM3XpEsMO-35" value="" style="group;fillColor=#f8cecc;strokeColor=#b85450;rounded=0;glass=0;" vertex="1" connectable="0" parent="42rtoRn7jrRHM3XpEsMO-1">
          <mxGeometry x="200" y="20" width="441" height="150" as="geometry" />
        </mxCell>
        <mxCell id="42rtoRn7jrRHM3XpEsMO-26" value="键盘皮肤" style="rounded=0;whiteSpace=wrap;html=1;" vertex="1" parent="42rtoRn7jrRHM3XpEsMO-35">
          <mxGeometry width="441" height="60" as="geometry" />
        </mxCell>
        <mxCell id="42rtoRn7jrRHM3XpEsMO-32" value="皮肤特效工厂" style="rounded=0;whiteSpace=wrap;html=1;" vertex="1" parent="42rtoRn7jrRHM3XpEsMO-35">
          <mxGeometry y="90" width="440" height="60" as="geometry" />
        </mxCell>
        <mxCell id="42rtoRn7jrRHM3XpEsMO-33" style="edgeStyle=orthogonalEdgeStyle;rounded=0;orthogonalLoop=1;jettySize=auto;html=1;entryX=0.5;entryY=0;entryDx=0;entryDy=0;" edge="1" parent="42rtoRn7jrRHM3XpEsMO-35" source="42rtoRn7jrRHM3XpEsMO-26" target="42rtoRn7jrRHM3XpEsMO-32">
          <mxGeometry relative="1" as="geometry" />
        </mxCell>
        <mxCell id="42rtoRn7jrRHM3XpEsMO-37" value="" style="group;fillColor=#ffe6cc;strokeColor=#d79b00;" vertex="1" connectable="0" parent="42rtoRn7jrRHM3XpEsMO-1">
          <mxGeometry x="200" y="200" width="440" height="210" as="geometry" />
        </mxCell>
        <mxCell id="42rtoRn7jrRHM3XpEsMO-12" value="" style="rounded=0;whiteSpace=wrap;html=1;fillColor=#fad7ac;strokeColor=default;" vertex="1" parent="42rtoRn7jrRHM3XpEsMO-37">
          <mxGeometry y="90" width="440" height="120" as="geometry" />
        </mxCell>
        <mxCell id="42rtoRn7jrRHM3XpEsMO-36" value="" style="group;fillColor=#fff2cc;strokeColor=#d6b656;" vertex="1" connectable="0" parent="42rtoRn7jrRHM3XpEsMO-37">
          <mxGeometry width="440" height="180" as="geometry" />
        </mxCell>
        <mxCell id="42rtoRn7jrRHM3XpEsMO-3" value="GLSurfaeView" style="rounded=0;whiteSpace=wrap;html=1;" vertex="1" parent="42rtoRn7jrRHM3XpEsMO-36">
          <mxGeometry width="440" height="60" as="geometry" />
        </mxCell>
        <mxCell id="42rtoRn7jrRHM3XpEsMO-14" value="XX" style="rounded=0;whiteSpace=wrap;html=1;" vertex="1" parent="42rtoRn7jrRHM3XpEsMO-36">
          <mxGeometry x="320" y="120" width="120" height="60" as="geometry" />
        </mxCell>
        <mxCell id="42rtoRn7jrRHM3XpEsMO-5" value="XXRender" style="rounded=0;whiteSpace=wrap;html=1;" vertex="1" parent="42rtoRn7jrRHM3XpEsMO-36">
          <mxGeometry x="154" y="120" width="120" height="60" as="geometry" />
        </mxCell>
        <mxCell id="42rtoRn7jrRHM3XpEsMO-7" value="GdxBox2dRender" style="rounded=0;whiteSpace=wrap;html=1;" vertex="1" parent="42rtoRn7jrRHM3XpEsMO-36">
          <mxGeometry x="320" y="120" width="120" height="60" as="geometry" />
        </mxCell>
        <mxCell id="42rtoRn7jrRHM3XpEsMO-4" value="LiquidRenderer" style="rounded=0;whiteSpace=wrap;html=1;" vertex="1" parent="42rtoRn7jrRHM3XpEsMO-36">
          <mxGeometry y="120" width="120" height="60" as="geometry" />
        </mxCell>
        <mxCell id="42rtoRn7jrRHM3XpEsMO-15" value="GLRender" style="rounded=0;whiteSpace=wrap;html=1;" vertex="1" parent="42rtoRn7jrRHM3XpEsMO-36">
          <mxGeometry y="90" width="120" height="20" as="geometry" />
        </mxCell>
        <mxCell id="42rtoRn7jrRHM3XpEsMO-25" style="edgeStyle=orthogonalEdgeStyle;rounded=0;orthogonalLoop=1;jettySize=auto;html=1;entryX=0.5;entryY=1;entryDx=0;entryDy=0;" edge="1" parent="42rtoRn7jrRHM3XpEsMO-37" source="42rtoRn7jrRHM3XpEsMO-12" target="42rtoRn7jrRHM3XpEsMO-3">
          <mxGeometry relative="1" as="geometry" />
        </mxCell>
      </root>
    </mxGraphModel>
  </diagram>
</mxfile>
